<svg width="83" height="32" viewBox="0 0 83 32" fill="none" xmlns="http://www.w3.org/2000/svg">
<mask id="path-1-inside-1_169_22495" fill="white">
<path d="M21.2205 2.78789C21.3221 5.30937 23.3121 14.9315 23.3121 14.9315C24.0434 16.8803 24.673 14.9315 24.673 14.9315C27.0805 7.02662 22.1605 2.44566 22.1605 2.44566C20.9046 1.64204 21.2205 2.78789 21.2205 2.78789ZM49.7872 1.41409C49.7872 1.41409 52.1958 3.24684 49.7872 3.59029C49.7872 3.59029 40.7873 4.73553 34.0905 11.6112C34.0905 11.6112 24.0434 21.2315 20.2772 31.7721C20.2772 31.7721 19.0212 31.7721 19.4415 29.7108C19.8596 27.6489 22.3699 18.5976 33.5658 7.48678C33.5658 7.48678 44.3475 -3.28298 49.7872 1.41409"/>
</mask>
<path d="M21.2205 2.78789C21.3221 5.30937 23.3121 14.9315 23.3121 14.9315C24.0434 16.8803 24.673 14.9315 24.673 14.9315C27.0805 7.02662 22.1605 2.44566 22.1605 2.44566C20.9046 1.64204 21.2205 2.78789 21.2205 2.78789ZM49.7872 1.41409C49.7872 1.41409 52.1958 3.24684 49.7872 3.59029C49.7872 3.59029 40.7873 4.73553 34.0905 11.6112C34.0905 11.6112 24.0434 21.2315 20.2772 31.7721C20.2772 31.7721 19.0212 31.7721 19.4415 29.7108C19.8596 27.6489 22.3699 18.5976 33.5658 7.48678C33.5658 7.48678 44.3475 -3.28298 49.7872 1.41409" fill="#FF4600"/>
<path d="M21.2205 2.78789L22.1845 2.52209L22.2151 2.63284L22.2197 2.74763L21.2205 2.78789ZM23.3121 14.9315L22.3759 15.2828L22.3486 15.21L22.3328 15.134L23.3121 14.9315ZM24.673 14.9315L25.6296 15.2228L25.6272 15.2309L25.6246 15.2389L24.673 14.9315ZM22.1605 2.44566L22.6995 1.60332L22.7757 1.65211L22.842 1.71378L22.1605 2.44566ZM49.7872 3.59029L49.9283 4.58028L49.9209 4.58134L49.9134 4.58229L49.7872 3.59029ZM34.0905 11.6112L34.8068 12.309L34.7947 12.3215L34.7821 12.3335L34.0905 11.6112ZM20.2772 31.7721L21.2189 32.1086L20.9818 32.7721L20.2772 32.7721L20.2772 31.7721ZM19.4415 29.7108L20.4216 29.9095L20.4214 29.9106L19.4415 29.7108ZM33.5658 7.48678L34.2725 8.19429L34.2702 8.19658L33.5658 7.48678ZM22.2197 2.74763C22.2669 3.9182 22.7712 6.86894 23.2873 9.62092C23.5414 10.9762 23.7926 12.2537 23.9802 13.1926C24.074 13.662 24.1519 14.0465 24.2063 14.3134C24.2335 14.4469 24.2548 14.551 24.2693 14.6216C24.2766 14.6569 24.2821 14.6839 24.2858 14.7019C24.2877 14.7109 24.2891 14.7177 24.29 14.7223C24.2905 14.7245 24.2908 14.7262 24.2911 14.7273C24.2912 14.7279 24.2913 14.7283 24.2913 14.7286C24.2913 14.7287 24.2914 14.7288 24.2914 14.7289C24.2914 14.7289 24.2914 14.7289 23.3121 14.9315C22.3328 15.134 22.3328 15.1339 22.3328 15.1338C22.3328 15.1338 22.3328 15.1336 22.3327 15.1335C22.3327 15.1331 22.3326 15.1327 22.3324 15.1321C22.3322 15.1309 22.3318 15.1291 22.3313 15.1267C22.3304 15.1219 22.3289 15.1149 22.327 15.1056C22.3232 15.0871 22.3175 15.0597 22.3102 15.024C22.2955 14.9524 22.274 14.8473 22.2465 14.7127C22.1917 14.4436 22.1133 14.0567 22.019 13.5846C21.8303 12.6406 21.5776 11.3549 21.3216 9.98954C20.8172 7.3001 20.2758 4.17906 20.2213 2.82816L22.2197 2.74763ZM24.2484 14.5802C24.324 14.7816 24.3835 14.8917 24.4172 14.9433C24.4548 15.0008 24.433 14.9438 24.3248 14.8828C24.2656 14.8493 24.1849 14.8175 24.0864 14.8041C23.9873 14.7907 23.8928 14.799 23.8105 14.8206C23.656 14.8611 23.5768 14.9383 23.5672 14.9477C23.5534 14.9613 23.5618 14.9561 23.5862 14.9169C23.6084 14.8813 23.6324 14.8359 23.6557 14.7856C23.6784 14.7363 23.6966 14.6911 23.7088 14.6588C23.7147 14.643 23.7189 14.6313 23.7211 14.6249C23.7222 14.6217 23.7228 14.62 23.7228 14.6197C23.7229 14.6196 23.7228 14.6199 23.7226 14.6206C23.7224 14.621 23.7223 14.6214 23.7221 14.622C23.722 14.6223 23.7219 14.6226 23.7218 14.6229C23.7217 14.6231 23.7217 14.6234 23.7216 14.6235C23.7215 14.6237 23.7214 14.624 24.673 14.9315C25.6246 15.2389 25.6245 15.2392 25.6244 15.2395C25.6244 15.2396 25.6242 15.2399 25.6242 15.2402C25.624 15.2406 25.6239 15.2411 25.6237 15.2416C25.6234 15.2427 25.623 15.2438 25.6226 15.2451C25.6217 15.2477 25.6207 15.2507 25.6195 15.2542C25.6172 15.2613 25.6141 15.2702 25.6105 15.2808C25.6031 15.302 25.593 15.3303 25.5803 15.364C25.5552 15.4307 25.5184 15.5224 25.4708 15.6255C25.3876 15.8051 25.2246 16.124 24.9664 16.3768C24.8323 16.5081 24.6173 16.6766 24.3176 16.7552C23.9848 16.8425 23.641 16.7934 23.3417 16.6245C22.8449 16.3441 22.5661 15.7899 22.3759 15.2828L24.2484 14.5802ZM23.7164 14.6401C24.842 10.9442 24.2496 8.0681 23.4028 6.12352C22.9762 5.1441 22.4815 4.39391 22.0979 3.89309C21.9063 3.64306 21.7435 3.45653 21.6323 3.33608C21.5768 3.2759 21.5343 3.23236 21.5078 3.2058C21.4945 3.19252 21.4852 3.18349 21.4803 3.17876C21.4779 3.1764 21.4765 3.17511 21.4763 3.1749C21.4762 3.1748 21.4764 3.17497 21.4768 3.1754C21.4771 3.17562 21.4774 3.17591 21.4777 3.17626C21.4779 3.17644 21.4783 3.17676 21.4784 3.17685C21.4787 3.17718 21.4791 3.17753 22.1605 2.44566C22.842 1.71378 22.8424 1.71417 22.8428 1.71457C22.843 1.71473 22.8435 1.71515 22.8438 1.71547C22.8445 1.7161 22.8452 1.71681 22.8461 1.71758C22.8477 1.71914 22.8497 1.72098 22.8519 1.72311C22.8564 1.72737 22.8621 1.73277 22.8688 1.73931C22.8824 1.7524 22.9005 1.77007 22.9227 1.79227C22.967 1.83666 23.0279 1.89927 23.1022 1.97979C23.2507 2.14074 23.4534 2.37385 23.6855 2.6768C24.1491 3.28193 24.7339 4.17104 25.2364 5.32497C26.2477 7.64708 26.9115 11.0139 25.6296 15.2228L23.7164 14.6401ZM21.6216 3.28799C21.499 3.20955 21.4213 3.17167 21.3814 3.15536C21.3377 3.13751 21.3657 3.15634 21.4458 3.15938C21.5369 3.16284 21.6945 3.14461 21.8572 3.0386C22.0176 2.93403 22.102 2.79685 22.1417 2.70218C22.1783 2.61503 22.1835 2.55083 22.1845 2.53482C22.1859 2.5148 22.1844 2.50809 22.1853 2.51664C22.186 2.52339 22.1873 2.53123 22.1885 2.53673C22.1889 2.53894 22.1891 2.53933 22.1886 2.53734C22.1883 2.53631 22.1879 2.53459 22.1872 2.53209C22.1869 2.53085 22.1865 2.5294 22.1861 2.52773C22.1859 2.5269 22.1856 2.52602 22.1854 2.52508C22.1852 2.52461 22.1851 2.52412 22.185 2.52363C22.1849 2.52338 22.1848 2.52299 22.1848 2.52287C22.1847 2.52248 22.1845 2.52209 21.2205 2.78789C20.2565 3.05369 20.2564 3.05329 20.2563 3.05289C20.2562 3.05275 20.2561 3.05233 20.256 3.05205C20.2559 3.05148 20.2557 3.0509 20.2556 3.05029C20.2552 3.04907 20.2549 3.04777 20.2545 3.04639C20.2538 3.04364 20.253 3.04055 20.2521 3.03716C20.2503 3.03038 20.2482 3.02233 20.246 3.0131C20.2415 2.99471 20.2361 2.97128 20.2303 2.94371C20.2191 2.8897 20.2056 2.81429 20.1963 2.72618C20.1818 2.58852 20.1578 2.26148 20.2974 1.92866C20.3761 1.74098 20.5191 1.52335 20.7652 1.36298C21.0135 1.20117 21.2837 1.15178 21.5218 1.16083C21.945 1.1769 22.3486 1.37881 22.6995 1.60332L21.6216 3.28799ZM49.7872 1.41409C50.3927 0.618274 50.3929 0.618451 50.3932 0.618635C50.3933 0.618705 50.3935 0.618897 50.3937 0.619039C50.3941 0.619323 50.3945 0.619636 50.3949 0.619978C50.3958 0.620661 50.3969 0.621461 50.3981 0.622375C50.4005 0.624202 50.4034 0.626487 50.4069 0.629217C50.414 0.634674 50.4232 0.641923 50.4345 0.65086C50.4571 0.668712 50.4878 0.693431 50.5248 0.724183C50.5985 0.785357 50.6992 0.872151 50.8114 0.977778C51.0236 1.17753 51.327 1.49122 51.5476 1.85839C51.7393 2.17742 52.0556 2.85495 51.6931 3.56176C51.3434 4.24359 50.5929 4.48551 49.9283 4.58028L49.646 2.6003C49.8829 2.56652 49.9937 2.52282 50.0287 2.50518C50.0569 2.49092 49.9776 2.52409 49.9135 2.64897C49.7768 2.91555 49.9426 3.07049 49.8332 2.8884C49.7527 2.75445 49.6046 2.58849 49.4404 2.43387C49.3644 2.36231 49.2958 2.30323 49.2471 2.26284C49.223 2.24281 49.2043 2.22781 49.1927 2.21865C49.187 2.21408 49.183 2.211 49.1811 2.2095C49.1801 2.20875 49.1797 2.2084 49.1797 2.20846C49.1798 2.20849 49.18 2.20863 49.1803 2.20887C49.1804 2.20899 49.1806 2.20913 49.1808 2.20931C49.181 2.20939 49.1812 2.20954 49.1812 2.20959C49.1814 2.20974 49.1816 2.2099 49.7872 1.41409ZM49.7872 3.59029C49.9134 4.58229 49.9137 4.58225 49.9139 4.58222C49.914 4.58222 49.9142 4.58219 49.9143 4.58218C49.9144 4.58216 49.9144 4.58216 49.9143 4.58217C49.9141 4.5822 49.9133 4.5823 49.912 4.58248C49.9094 4.58282 49.9046 4.58346 49.8978 4.58441C49.8841 4.5863 49.862 4.58942 49.8319 4.59391C49.7716 4.60289 49.6792 4.61733 49.5575 4.63835C49.314 4.68039 48.9533 4.74867 48.4972 4.85196C47.5845 5.05869 46.2935 5.40485 44.7981 5.95988C41.8012 7.07216 38.0207 9.00925 34.8068 12.309L33.3741 10.9135C36.857 7.33751 40.9248 5.26413 44.1022 4.08486C45.6938 3.49412 47.0714 3.12424 48.0554 2.90137C48.5477 2.78986 48.9424 2.71495 49.2172 2.66751C49.3547 2.64378 49.4622 2.62691 49.5371 2.61575C49.5745 2.61017 49.6038 2.60602 49.6245 2.60316C49.6349 2.60173 49.6432 2.60062 49.6492 2.59981C49.6523 2.59941 49.6548 2.59908 49.6567 2.59883C49.6577 2.5987 49.6585 2.59859 49.6592 2.5985C49.6596 2.59846 49.66 2.59841 49.6602 2.59838C49.6606 2.59833 49.6609 2.59829 49.7872 3.59029ZM34.0905 11.6112C34.7821 12.3335 34.7822 12.3334 34.7822 12.3334C34.7822 12.3334 34.7822 12.3334 34.7821 12.3335C34.782 12.3336 34.7817 12.3339 34.7813 12.3343C34.7804 12.3351 34.7789 12.3366 34.7768 12.3386C34.7727 12.3426 34.7661 12.3489 34.7573 12.3575C34.7396 12.3746 34.7125 12.4009 34.6767 12.436C34.6051 12.5062 34.4984 12.6117 34.3605 12.7503C34.0846 13.0277 33.6842 13.4377 33.191 13.9633C32.2043 15.015 30.8484 16.5271 29.3766 18.3642C26.4217 22.0522 23.0473 26.9912 21.2189 32.1086L19.3355 31.4356C21.2732 26.0124 24.8055 20.8709 27.8157 17.1137C29.3264 15.2281 30.7178 13.6764 31.7325 12.5949C32.2401 12.0539 32.6541 11.6299 32.9424 11.34C33.0865 11.1951 33.1993 11.0836 33.2767 11.0077C33.3154 10.9698 33.3453 10.9407 33.3658 10.9208C33.3761 10.9109 33.384 10.9033 33.3895 10.8979C33.3923 10.8953 33.3945 10.8932 33.396 10.8917C33.3968 10.8909 33.3974 10.8903 33.3979 10.8899C33.3981 10.8896 33.3984 10.8894 33.3985 10.8893C33.3987 10.8891 33.3989 10.8889 34.0905 11.6112ZM20.2772 31.7721C20.2772 32.7721 20.2764 32.7721 20.2755 32.7721C20.2753 32.7721 20.2744 32.7721 20.2739 32.7721C20.2728 32.7721 20.2716 32.7721 20.2705 32.7721C20.2681 32.7721 20.2657 32.772 20.2632 32.772C20.2582 32.7719 20.2527 32.7718 20.247 32.7717C20.2354 32.7714 20.2224 32.7709 20.2079 32.7701C20.1791 32.7685 20.1444 32.7657 20.1048 32.7609C20.0261 32.7515 19.9246 32.7338 19.8092 32.7004C19.5793 32.6338 19.2759 32.4988 18.9998 32.2267C18.4029 31.6384 18.2156 30.7177 18.4617 29.511L20.4214 29.9106C20.2471 30.7652 20.4777 30.8751 20.4037 30.8022C20.389 30.7877 20.3733 30.7816 20.3657 30.7794C20.3616 30.7782 20.3549 30.7766 20.3433 30.7752C20.3372 30.7745 20.329 30.7737 20.3184 30.7731C20.3131 30.7728 20.307 30.7726 20.3002 30.7724C20.2968 30.7723 20.2931 30.7722 20.2893 30.7722C20.2874 30.7721 20.2854 30.7721 20.2834 30.7721C20.2824 30.7721 20.2814 30.7721 20.2803 30.7721C20.2798 30.7721 20.279 30.7721 20.2788 30.7721C20.278 30.7721 20.2772 30.7721 20.2772 31.7721ZM18.4615 29.5121C18.9173 27.2643 21.5194 18.0328 32.8614 6.77698L34.2702 8.19658C23.2204 19.1624 20.802 28.0334 20.4216 29.9095L18.4615 29.5121ZM33.5658 7.48678C32.8591 6.77929 32.8593 6.77908 32.8595 6.77884C32.8596 6.7787 32.8599 6.77841 32.8602 6.77814C32.8607 6.7776 32.8615 6.77689 32.8623 6.77602C32.8641 6.77428 32.8665 6.77189 32.8695 6.76886C32.8756 6.76282 32.8843 6.75423 32.8955 6.7432C32.918 6.72114 32.9505 6.6893 32.9926 6.6485C33.0769 6.56692 33.1997 6.44941 33.3571 6.30242C33.6716 6.00858 34.1251 5.59622 34.6858 5.11713C35.8042 4.1615 37.3633 2.92839 39.1074 1.84055C40.8401 0.759797 42.8173 -0.216938 44.7648 -0.599842C46.7311 -0.986457 48.7741 -0.781858 50.4407 0.657207L49.1336 2.17097C48.0804 1.2615 46.7358 1.05092 45.1506 1.36259C43.5466 1.67796 41.8084 2.51297 40.1658 3.53752C38.5345 4.55499 37.0581 5.72075 35.985 6.63767C35.4499 7.09485 35.0186 7.48718 34.7223 7.76397C34.5742 7.90229 34.46 8.01158 34.3837 8.08546C34.3456 8.12239 34.3169 8.15046 34.2982 8.16887C34.2888 8.17807 34.282 8.18486 34.2777 8.18913C34.2755 8.19126 34.274 8.19277 34.2731 8.19363C34.2727 8.19406 34.2724 8.19433 34.2723 8.19444C34.2723 8.1945 34.2723 8.19446 34.2723 8.19448C34.2724 8.1944 34.2725 8.19428 33.5658 7.48678Z" fill="black" mask="url(#path-1-inside-1_169_22495)"/>
<path d="M3.88838 17.1528L3.42824 17.0465L3.50806 16.5811L4.40922 11.326L4.46111 11.0234L4.75443 10.9328C5.1222 10.8192 5.64515 10.7737 6.26515 10.7737C7.01673 10.7737 7.75964 10.9341 8.32278 11.3891C8.90512 11.8597 9.21543 12.5796 9.21543 13.521C9.21543 15.642 7.59932 17.3024 5.27959 17.3024C4.71948 17.3024 4.32463 17.2535 3.88838 17.1528ZM9.5472 10.6234L9.54715 10.6235L9.5405 10.6177C8.75083 9.92867 7.51207 9.63946 6.24349 9.63946C5.16059 9.63946 4.07669 9.74383 3.28468 9.91561L0.802257 24.2194H2.17623L3.13083 18.7815L3.21264 18.3155L3.68245 18.3714C3.75694 18.3803 3.83131 18.3898 3.90602 18.3992C4.23206 18.4406 4.56471 18.4828 4.94311 18.4828C6.53341 18.4828 8.02021 18.0243 9.03694 17.1374L9.03834 17.1362C9.93467 16.3601 10.6685 15.0052 10.6685 13.3156C10.6685 12.0662 10.2385 11.2054 9.5472 10.6234Z" fill="black" stroke="black"/>
<path d="M17.7765 14.9893L18.2143 15.1112L18.1346 15.5586L17.6119 18.4945C17.3609 19.9752 16.8704 21.1539 16.2639 21.9757C15.6679 22.7832 14.9031 23.3141 14.1016 23.3141C13.3836 23.3141 12.8579 22.9741 12.5385 22.4437C12.2387 21.946 12.1341 21.3085 12.1341 20.6811C12.1341 19.3011 12.6081 17.8692 13.3873 16.7739C14.163 15.6836 15.2975 14.8567 16.6374 14.8567C17.1116 14.8567 17.4721 14.9045 17.7765 14.9893ZM17.1709 24.2192H18.3942C18.3994 22.8633 18.5635 21.0184 18.8275 19.5369L18.8279 19.5344L19.8167 14.1426C19.0975 13.9433 18.162 13.7917 17.2864 13.7917C15.0662 13.7917 13.4093 14.7328 12.2968 16.1126C11.1748 17.5043 10.5972 19.3572 10.5972 21.1625C10.5972 22.2025 10.8741 23.0376 11.3163 23.6009C11.7506 24.1542 12.3617 24.4709 13.116 24.4709C14.1897 24.4709 15.3972 23.9024 16.3353 21.9959L16.4727 21.7166H16.784H16.8261H17.3733L17.3241 22.2615C17.3211 22.2956 17.318 22.3296 17.3149 22.3635C17.2532 23.0477 17.1958 23.684 17.1709 24.2192Z" fill="black" stroke="black"/>
<mask id="path-5-inside-2_169_22495" fill="white">
<path d="M34.2597 20.2905C34.2597 21.826 34.9932 22.9074 36.2508 22.9074C38.0743 22.9074 39.2902 20.1525 39.2902 17.927C39.2902 16.7788 38.8072 15.3563 37.3413 15.3563C35.3919 15.3563 34.2597 18.2024 34.2597 20.2905ZM41.8049 17.9052C41.8049 21.7129 39.3941 24.9705 35.916 24.9705C33.3369 24.9705 31.7456 23.0204 31.7456 20.3579C31.7456 16.5733 34.1554 13.292 37.6345 13.292C40.3796 13.292 41.8049 15.4487 41.8049 17.9052"/>
</mask>
<path d="M34.2597 20.2905C34.2597 21.826 34.9932 22.9074 36.2508 22.9074C38.0743 22.9074 39.2902 20.1525 39.2902 17.927C39.2902 16.7788 38.8072 15.3563 37.3413 15.3563C35.3919 15.3563 34.2597 18.2024 34.2597 20.2905ZM41.8049 17.9052C41.8049 21.7129 39.3941 24.9705 35.916 24.9705C33.3369 24.9705 31.7456 23.0204 31.7456 20.3579C31.7456 16.5733 34.1554 13.292 37.6345 13.292C40.3796 13.292 41.8049 15.4487 41.8049 17.9052" fill="black"/>
<path d="M35.2597 20.2905C35.2597 20.9134 35.4102 21.3392 35.5888 21.5816C35.7445 21.7929 35.9458 21.9074 36.2508 21.9074V23.9074C35.2982 23.9074 34.504 23.4811 33.9786 22.7679C33.476 22.0857 33.2597 21.203 33.2597 20.2905H35.2597ZM36.2508 21.9074C36.6128 21.9074 37.1097 21.6213 37.5781 20.7697C38.0242 19.9589 38.2902 18.881 38.2902 17.927H40.2902C40.2902 19.1985 39.9482 20.6108 39.3305 21.7338C38.7351 22.816 37.7123 23.9074 36.2508 23.9074V21.9074ZM38.2902 17.927C38.2902 17.4671 38.1894 17.0235 38.0114 16.7312C37.8645 16.4901 37.6809 16.3563 37.3413 16.3563V14.3563C38.4676 14.3563 39.2584 14.9338 39.7195 15.6909C40.1495 16.3969 40.2902 17.2387 40.2902 17.927H38.2902ZM37.3413 16.3563C36.9126 16.3563 36.4069 16.6709 35.9488 17.5166C35.5072 18.3321 35.2597 19.4 35.2597 20.2905H33.2597C33.2597 19.0929 33.5784 17.6937 34.1902 16.5641C34.7856 15.4648 35.8206 14.3563 37.3413 14.3563V16.3563ZM42.8049 17.9052C42.8049 22.0505 40.139 25.9705 35.916 25.9705V23.9705C38.6492 23.9705 40.8049 21.3753 40.8049 17.9052H42.8049ZM35.916 25.9705C34.3564 25.9705 33.0337 25.372 32.1122 24.3224C31.2026 23.2864 30.7456 21.8837 30.7456 20.3579H32.7456C32.7456 21.4947 33.0843 22.3983 33.6151 23.0029C34.1341 23.594 34.8965 23.9705 35.916 23.9705V25.9705ZM30.7456 20.3579C30.7456 16.2382 33.4084 12.292 37.6345 12.292V14.292C34.9023 14.292 32.7456 16.9084 32.7456 20.3579H30.7456ZM37.6345 12.292C39.2957 12.292 40.6245 12.9569 41.5199 14.0403C42.3964 15.1007 42.8049 16.4941 42.8049 17.9052H40.8049C40.8049 16.8597 40.5008 15.9466 39.9783 15.3145C39.4749 14.7054 38.7185 14.292 37.6345 14.292V12.292Z" fill="black" mask="url(#path-5-inside-2_169_22495)"/>
<path d="M45.728 14.0446H44.5472C44.4328 14.9181 44.2932 15.9484 44.0767 17.0974L42.8566 24.2192H44.2731L45.0821 19.4736C45.0821 19.4734 45.0821 19.4732 45.0822 19.473C45.3137 18.0953 45.8091 16.9921 46.4198 16.2215C47.019 15.4657 47.7821 14.9709 48.5512 14.9709C49.1629 14.9709 49.651 15.1917 49.9612 15.6344C50.2475 16.0428 50.3294 16.5681 50.3294 17.0775C50.3294 17.5545 50.262 18.0681 50.1962 18.4865L50.1962 18.4865L50.195 18.4938L49.2071 24.2192H50.6435L51.6852 18.118L51.6851 18.118L51.687 18.1082C51.7877 17.5821 51.8658 16.834 51.8658 16.3669C51.8658 15.3984 51.6069 14.7646 51.2491 14.3771C50.8945 13.9932 50.3884 13.7917 49.7672 13.7917C48.543 13.7917 47.3897 14.4336 46.5221 15.8078L46.3749 16.0408H46.0993H46.0582H45.497L45.5615 15.4834L45.728 14.0446Z" fill="black" stroke="black"/>
<path d="M56.0267 18.6339L55.4127 18.6285L55.5425 18.0282C55.7043 17.2803 56.0627 16.4874 56.607 15.8717C57.1555 15.2511 57.9169 14.7879 58.8602 14.7879C59.339 14.7879 59.7901 14.9231 60.1294 15.2179C60.4764 15.5194 60.6606 15.9491 60.6606 16.4362C60.6606 16.883 60.5237 17.2771 60.2499 17.5993C59.9842 17.9118 59.6175 18.1242 59.2078 18.2715C58.4003 18.5617 57.2913 18.6453 56.0267 18.6339ZM55.6106 21.9458C55.458 21.6572 55.3683 21.2968 55.3199 20.9787C55.2711 20.6579 55.2563 20.3256 55.2838 20.0751L55.3338 19.6192L55.7924 19.6298C57.7385 19.6748 59.3117 19.466 60.3809 18.9432C60.9073 18.6858 61.2967 18.3595 61.5564 17.9622C61.8149 17.5669 61.9654 17.07 61.9654 16.4362C61.9654 15.6116 61.688 14.9621 61.2275 14.5182C60.7655 14.0728 60.0754 13.7922 59.175 13.7922C57.6056 13.7922 56.2964 14.606 55.3626 15.8496C54.4247 17.0987 53.8916 18.7533 53.8916 20.3363C53.8916 21.6256 54.2138 22.6549 54.8076 23.354C55.3907 24.0406 56.2882 24.4708 57.5815 24.4708C58.6281 24.4708 59.7628 24.2241 60.6502 23.7934L60.5438 22.8846C59.8707 23.1671 59.078 23.3602 58.1484 23.3602C57.0338 23.3602 56.1116 22.8978 55.6106 21.9458Z" fill="black" stroke="black"/>
<path d="M65.5194 18.6339L64.9053 18.6285L65.0352 18.0282C65.1971 17.2802 65.5559 16.4872 66.1003 15.8716C66.649 15.2512 67.4103 14.7879 68.3529 14.7879C68.8317 14.7879 69.2828 14.9231 69.6221 15.2179C69.9691 15.5194 70.1532 15.9491 70.1532 16.4362C70.1532 16.883 70.0164 17.2771 69.7425 17.5993C69.4769 17.9118 69.1101 18.1242 68.7005 18.2715C67.893 18.5617 66.784 18.6453 65.5194 18.6339ZM65.1033 21.9458C64.9508 21.6573 64.8608 21.297 64.8124 20.9788C64.7635 20.658 64.7486 20.3254 64.7765 20.0744L64.8271 19.6192L65.2851 19.6298C67.2312 19.6748 68.805 19.466 69.8748 18.9431C70.4015 18.6857 70.7912 18.3594 71.0511 17.9621C71.3097 17.5667 71.4603 17.07 71.4603 16.4362C71.4603 15.6118 71.1825 14.9624 70.7215 14.5183C70.2589 14.0728 69.5681 13.7922 68.6677 13.7922C67.0983 13.7922 65.789 14.606 64.8553 15.8496C63.9174 17.0987 63.3843 18.7533 63.3843 20.3363C63.3843 21.6256 63.7064 22.6549 64.3005 23.354C64.8838 24.0405 65.7819 24.4708 67.0764 24.4708C68.1211 24.4708 69.2567 24.2241 70.1429 23.7936L70.0365 22.8846C69.3634 23.1671 68.5707 23.3602 67.641 23.3602C66.5284 23.3602 65.6043 22.898 65.1033 21.9458Z" fill="black" stroke="black"/>
<path d="M75.2128 15.8205C75.2918 15.2175 75.3463 14.6278 75.3956 14.0446H74.2731C74.269 14.086 74.2648 14.1283 74.2605 14.1713C74.1609 15.1741 74.0197 16.5952 73.7921 17.9197L73.7919 17.9204L72.6992 24.2192H74.1142L74.8185 20.1373C75.0245 18.9005 75.4203 17.7442 76.0215 16.8832C76.6276 16.0151 77.4764 15.4074 78.5591 15.4074C78.5667 15.4074 78.5744 15.4074 78.5823 15.4074C78.5909 15.4074 78.5998 15.4074 78.6088 15.4074L78.9071 13.7923C77.8376 13.819 76.879 14.6891 76.224 16.0965L76.0895 16.3855H75.7707H75.7085H75.1386L75.2128 15.8205Z" fill="black" stroke="black"/>
<mask id="path-11-inside-3_169_22495" fill="white">
<path d="M81.3575 14.5668H81.5363C81.7195 14.5668 81.8406 14.4549 81.8406 14.286C81.8406 14.0957 81.7134 14.0124 81.5302 14.0124C81.4458 14.0124 81.3858 14.0191 81.3575 14.0264V14.5668ZM81.1826 13.8927C81.2715 13.875 81.3986 13.8623 81.5169 13.8623C81.7023 13.8623 81.8256 13.9036 81.9072 13.9838C81.9744 14.0489 82.0133 14.1504 82.0133 14.2671C82.0133 14.4592 81.9028 14.5893 81.7606 14.641V14.6483C81.8639 14.6872 81.9244 14.7935 81.9589 14.9467C82.0022 15.151 82.0344 15.295 82.0627 15.3528H81.8817C81.86 15.3078 81.8295 15.1832 81.7951 14.999C81.754 14.7948 81.679 14.7194 81.5213 14.7121H81.3575V15.3528H81.1826V13.8927Z"/>
</mask>
<path d="M81.3575 14.5668H81.5363C81.7195 14.5668 81.8406 14.4549 81.8406 14.286C81.8406 14.0957 81.7134 14.0124 81.5302 14.0124C81.4458 14.0124 81.3858 14.0191 81.3575 14.0264V14.5668ZM81.1826 13.8927C81.2715 13.875 81.3986 13.8623 81.5169 13.8623C81.7023 13.8623 81.8256 13.9036 81.9072 13.9838C81.9744 14.0489 82.0133 14.1504 82.0133 14.2671C82.0133 14.4592 81.9028 14.5893 81.7606 14.641V14.6483C81.8639 14.6872 81.9244 14.7935 81.9589 14.9467C82.0022 15.151 82.0344 15.295 82.0627 15.3528H81.8817C81.86 15.3078 81.8295 15.1832 81.7951 14.999C81.754 14.7948 81.679 14.7194 81.5213 14.7121H81.3575V15.3528H81.1826V13.8927Z" fill="black"/>
<path d="M81.3575 14.5668V15.5668H80.3575V14.5668H81.3575ZM81.3575 14.0264H80.3575V13.2513L81.1081 13.058L81.3575 14.0264ZM81.1826 13.8927H80.1826V13.0716L80.988 12.9118L81.1826 13.8927ZM81.9072 13.9838L81.2116 14.7023L81.2062 14.697L81.9072 13.9838ZM81.7606 14.641H80.7606V13.9404L81.419 13.7011L81.7606 14.641ZM81.7606 14.6483L81.4081 15.5841L80.7606 15.3402V14.6483H81.7606ZM81.9589 14.9467L82.9346 14.7274L82.9371 14.7393L81.9589 14.9467ZM82.0627 15.3528L82.9605 14.9125L83.6668 16.3528H82.0627V15.3528ZM81.8817 15.3528V16.3528H81.2532L80.9806 15.7865L81.8817 15.3528ZM81.7951 14.999L82.7755 14.8018L82.778 14.8153L81.7951 14.999ZM81.5213 14.7121V13.7121H81.5444L81.5675 13.7131L81.5213 14.7121ZM81.3575 14.7121H80.3575V13.7121H81.3575V14.7121ZM81.3575 15.3528H82.3575V16.3528H81.3575V15.3528ZM81.1826 15.3528V16.3528H80.1826V15.3528H81.1826ZM81.3575 13.5668H81.5363V15.5668H81.3575V13.5668ZM81.5363 13.5668C81.4255 13.5668 81.2434 13.603 81.0788 13.755C80.9067 13.9139 80.8406 14.1202 80.8406 14.286H82.8406C82.8406 14.6207 82.7139 14.9674 82.4355 15.2245C82.1646 15.4747 81.8304 15.5668 81.5363 15.5668V13.5668ZM80.8406 14.286C80.8406 14.4312 80.901 14.6725 81.1221 14.8528C81.3092 15.0054 81.4893 15.0124 81.5302 15.0124V13.0124C81.7543 13.0124 82.0896 13.061 82.3861 13.3029C82.7166 13.5724 82.8406 13.9505 82.8406 14.286H80.8406ZM81.5302 15.0124C81.5134 15.0124 81.5071 15.0131 81.5113 15.0127C81.5135 15.0126 81.5214 15.0118 81.5342 15.0099C81.5407 15.0089 81.5499 15.0074 81.5611 15.0052C81.5721 15.003 81.5878 14.9997 81.607 14.9948L81.1081 13.058C81.2594 13.019 81.4194 13.0124 81.5302 13.0124V15.0124ZM82.3575 14.0264V14.5668H80.3575V14.0264H82.3575ZM80.988 12.9118C81.1469 12.8802 81.3397 12.8623 81.5169 12.8623V14.8623C81.4921 14.8623 81.462 14.8637 81.4318 14.8665C81.4005 14.8694 81.3813 14.8727 81.3773 14.8735L80.988 12.9118ZM81.5169 12.8623C81.836 12.8623 82.2645 12.9328 82.6083 13.2707L81.2062 14.697C81.2899 14.7793 81.3804 14.8245 81.4486 14.8462C81.5091 14.8653 81.5396 14.8623 81.5169 14.8623V12.8623ZM82.6028 13.2654C82.9048 13.5577 83.0133 13.9412 83.0133 14.2671H81.0133C81.0133 14.3596 81.044 14.54 81.2117 14.7023L82.6028 13.2654ZM83.0133 14.2671C83.0133 14.9013 82.619 15.3929 82.1023 15.5808L81.419 13.7011C81.3152 13.7389 81.2092 13.8107 81.1289 13.9221C81.0455 14.0379 81.0133 14.1641 81.0133 14.2671H83.0133ZM82.7606 14.641V14.6483H80.7606V14.641H82.7606ZM82.1131 13.7124C82.711 13.9376 82.8816 14.492 82.9345 14.7275L80.9832 15.166C80.9804 15.1537 80.9904 15.211 81.043 15.2932C81.1037 15.3883 81.2211 15.5136 81.4081 15.5841L82.1131 13.7124ZM82.9371 14.7393C82.9591 14.8429 82.9747 14.9144 82.9872 14.9646C82.9932 14.9893 82.9961 14.9987 82.9959 14.9981C82.9957 14.9974 82.9934 14.99 82.9889 14.978C82.9848 14.967 82.9757 14.9434 82.9605 14.9125L81.1648 15.7931C81.097 15.6547 81.0603 15.5041 81.0456 15.4447C81.024 15.3574 81.0019 15.2548 80.9806 15.1542L82.9371 14.7393ZM82.0627 16.3528H81.8817V14.3528H82.0627V16.3528ZM80.9806 15.7865C80.9191 15.6587 80.8856 15.522 80.8719 15.466C80.8513 15.3819 80.8312 15.2852 80.8121 15.1827L82.778 14.8153C82.7933 14.897 82.8058 14.9547 82.8145 14.9902C82.8188 15.0081 82.8206 15.0134 82.8194 15.0095C82.8187 15.0073 82.8161 14.999 82.8115 14.9864C82.8073 14.9752 82.798 14.9508 82.7827 14.919L80.9806 15.7865ZM80.8147 15.1962C80.8067 15.1567 80.8263 15.3139 80.9814 15.4751C81.1737 15.6749 81.3973 15.7074 81.4751 15.711L81.5675 13.7131C81.803 13.724 82.143 13.7979 82.4224 14.0882C82.6647 14.34 82.7423 14.6371 82.7754 14.8018L80.8147 15.1962ZM81.5213 15.7121H81.3575V13.7121H81.5213V15.7121ZM82.3575 14.7121V15.3528H80.3575V14.7121H82.3575ZM81.3575 16.3528H81.1826V14.3528H81.3575V16.3528ZM80.1826 15.3528V13.8927H82.1826V15.3528H80.1826Z" fill="black" mask="url(#path-11-inside-3_169_22495)"/>
<mask id="path-13-inside-4_169_22495" fill="white">
<path d="M81.5836 13.292C80.9173 13.292 80.376 13.8847 80.376 14.6141C80.376 15.3436 80.9173 15.9369 81.5836 15.9369C82.2499 15.9369 82.7913 15.3436 82.7913 14.6141C82.7913 13.8847 82.2499 13.292 81.5836 13.292ZM81.5836 13.4963C82.1467 13.4963 82.6036 13.9953 82.6036 14.6141C82.6036 15.2324 82.1467 15.7333 81.5836 15.7333C81.0189 15.7333 80.5614 15.2324 80.5614 14.6141C80.5614 13.9953 81.0189 13.4963 81.5836 13.4963"/>
</mask>
<path d="M81.5836 13.292C80.9173 13.292 80.376 13.8847 80.376 14.6141C80.376 15.3436 80.9173 15.9369 81.5836 15.9369C82.2499 15.9369 82.7913 15.3436 82.7913 14.6141C82.7913 13.8847 82.2499 13.292 81.5836 13.292ZM81.5836 13.4963C82.1467 13.4963 82.6036 13.9953 82.6036 14.6141C82.6036 15.2324 82.1467 15.7333 81.5836 15.7333C81.0189 15.7333 80.5614 15.2324 80.5614 14.6141C80.5614 13.9953 81.0189 13.4963 81.5836 13.4963" fill="black"/>
<path d="M81.5836 14.292C81.5582 14.292 81.5163 14.3014 81.4683 14.354C81.419 14.4079 81.376 14.4975 81.376 14.6141H79.376C79.376 13.4196 80.2817 12.292 81.5836 12.292V14.292ZM81.376 14.6141C81.376 14.7308 81.419 14.8207 81.4685 14.8749C81.5167 14.9276 81.5585 14.9369 81.5836 14.9369V16.9369C80.2812 16.9369 79.376 15.8081 79.376 14.6141H81.376ZM81.5836 14.9369C81.6088 14.9369 81.6506 14.9276 81.6988 14.8749C81.7482 14.8207 81.7913 14.7308 81.7913 14.6141H83.7913C83.7913 15.8081 82.8861 16.9369 81.5836 16.9369V14.9369ZM81.7913 14.6141C81.7913 14.4975 81.7483 14.4079 81.699 14.354C81.651 14.3014 81.6091 14.292 81.5836 14.292V12.292C82.8855 12.292 83.7913 13.4196 83.7913 14.6141H81.7913ZM81.5836 12.4963C82.7822 12.4963 83.6036 13.5302 83.6036 14.6141H81.6036C81.6036 14.5518 81.581 14.5135 81.5664 14.4976C81.5594 14.4899 81.5564 14.4895 81.5606 14.4915C81.5659 14.4939 81.5746 14.4963 81.5836 14.4963V12.4963ZM83.6036 14.6141C83.6036 15.6956 82.7839 16.7333 81.5836 16.7333V14.7333C81.5741 14.7333 81.5649 14.7358 81.5596 14.7382C81.5554 14.7402 81.5585 14.7398 81.5658 14.7318C81.581 14.7151 81.6036 14.6762 81.6036 14.6141H83.6036ZM81.5836 16.7333C80.3834 16.7333 79.5614 15.6975 79.5614 14.6141H81.5614C81.5614 14.6758 81.5839 14.7145 81.5991 14.7311C81.6064 14.7391 81.6097 14.7397 81.6058 14.7379C81.6008 14.7356 81.5923 14.7333 81.5836 14.7333V16.7333ZM79.5614 14.6141C79.5614 13.5284 80.385 12.4963 81.5836 12.4963V14.4963C81.5918 14.4963 81.5999 14.4941 81.6048 14.4918C81.6087 14.4901 81.6055 14.4906 81.5985 14.4983C81.5839 14.5142 81.5614 14.5521 81.5614 14.6141H79.5614Z" fill="black" mask="url(#path-13-inside-4_169_22495)"/>
</svg>
