<svg width="120" height="120" viewBox="0 0 60 60" fill="none" xmlns="http://www.w3.org/2000/svg">
  <path d="M26.6426 37.9183H22.5223L25.0975 22.0924H29.2182L26.6426 37.9183ZM19.0561 22.0924L15.1279 32.9775L14.6631 30.6335L14.6635 30.6344L13.2771 23.5173C13.2771 23.5173 13.1095 22.0924 11.3226 22.0924H4.82864L4.75244 22.3603C4.75244 22.3603 6.7383 22.7735 9.06241 24.1692L12.6421 37.9187H16.9352L23.4905 22.0924H19.0561ZM51.4644 37.9183H55.2477L51.9491 22.0919H48.637C47.1074 22.0919 46.7349 23.2713 46.7349 23.2713L40.5898 37.9183H44.8849L45.7439 35.5675H50.9818L51.4644 37.9183ZM46.9305 32.3201L49.0954 26.3977L50.3134 32.3201H46.9305ZM40.912 25.8981L41.5 22.4996C41.5 22.4996 39.6856 21.8096 37.7941 21.8096C35.7494 21.8096 30.8938 22.7032 30.8938 27.0488C30.8938 31.1373 36.5927 31.1881 36.5927 33.3357C36.5927 35.4833 31.4809 35.0985 29.7939 33.7442L29.1814 37.2977C29.1814 37.2977 31.0212 38.1913 33.8321 38.1913C36.6439 38.1913 40.8857 36.7355 40.8857 32.7731C40.8857 28.6583 35.1356 28.2752 35.1356 26.4861C35.136 24.6967 39.1488 24.9266 40.912 25.8981Z" fill="white"/>
  <path d="M14.6635 30.6343L13.2771 23.5172C13.2771 23.5172 13.1095 22.0923 11.3226 22.0923H4.82864L4.75244 22.3603C4.75244 22.3603 7.87368 23.0071 10.8675 25.4307C13.7301 27.7472 14.6635 30.6343 14.6635 30.6343Z" fill="white"/>
</svg>